<svg width="425" height="37" viewBox="0 0 425 37" fill="none" xmlns="http://www.w3.org/2000/svg">
<path d="M5.0625 36V14.7656H0.421875V10.2188H5.0625V3.91406H10.2422V10.2188H14.9062V14.7656H10.2422V36H5.0625ZM22.2891 21.1875V36H16.9688V0.9375H22.3125L22.2891 13.4062C23.1328 12.2969 24.2266 11.4141 25.5703 10.7578C26.9141 10.1016 28.3125 9.78125 29.7656 9.79688C32.5156 9.8125 34.75 10.75 36.4688 12.6094C38.1875 14.4688 39.0469 16.8828 39.0469 19.8516V36H33.7266V20.625C33.7266 18.8125 33.2266 17.3516 32.2266 16.2422C31.2266 15.1172 29.9219 14.5625 28.3125 14.5781C26.6094 14.5781 25.1797 15.2109 24.0234 16.4766C22.8672 17.7422 22.2891 19.3125 22.2891 21.1875ZM55.3125 36.6328C52.7656 36.6328 50.4766 36.0703 48.4453 34.9453C46.4141 33.8203 44.8203 32.2266 43.6641 30.1641C42.5234 28.1016 41.9531 25.7578 41.9531 23.1328C41.9531 21.2422 42.3047 19.4609 43.0078 17.7891C43.7109 16.1172 44.6562 14.6875 45.8438 13.5C47.0312 12.3125 48.4453 11.375 50.0859 10.6875C51.7266 10 53.4688 9.65625 55.3125 9.65625C59.4844 9.67188 62.8125 11.0625 65.2969 13.8281C67.7969 16.5938 68.8359 20.1562 68.4141 24.5156H47.4844C47.5938 26.7188 48.3906 28.5312 49.875 29.9531C51.3594 31.3594 53.1875 32.0547 55.3594 32.0391C57.125 32.0234 58.6562 31.6016 59.9531 30.7734C61.25 29.9297 62.1328 28.8281 62.6016 27.4688H68.2031C67.5625 30.2188 66.0703 32.4375 63.7266 34.125C61.3984 35.7969 58.5938 36.6328 55.3125 36.6328ZM47.625 20.5547H62.8359C62.6484 18.6797 61.8672 17.1562 60.4922 15.9844C59.1172 14.8125 57.4219 14.2188 55.4062 14.2031C53.4688 14.2031 51.7734 14.7891 50.3203 15.9609C48.8828 17.1328 47.9844 18.6641 47.625 20.5547ZM76.1719 36L68.25 10.2188H74.1562L79.2188 27.9375L84.4219 10.2188H89.625L94.9688 27.8203L99.9844 10.2188H105.422L97.4766 36H92.4141L86.6953 18.1406L81.2578 36H76.1719ZM118.781 36.6328C116.234 36.6328 113.945 36.0703 111.914 34.9453C109.883 33.8203 108.289 32.2266 107.133 30.1641C105.992 28.1016 105.422 25.7578 105.422 23.1328C105.422 21.2422 105.773 19.4609 106.477 17.7891C107.18 16.1172 108.125 14.6875 109.312 13.5C110.5 12.3125 111.914 11.375 113.555 10.6875C115.195 10 116.938 9.65625 118.781 9.65625C122.953 9.67188 126.281 11.0625 128.766 13.8281C131.266 16.5938 132.305 20.1562 131.883 24.5156H110.953C111.062 26.7188 111.859 28.5312 113.344 29.9531C114.828 31.3594 116.656 32.0547 118.828 32.0391C120.594 32.0234 122.125 31.6016 123.422 30.7734C124.719 29.9297 125.602 28.8281 126.07 27.4688H131.672C131.031 30.2188 129.539 32.4375 127.195 34.125C124.867 35.7969 122.062 36.6328 118.781 36.6328ZM111.094 20.5547H126.305C126.117 18.6797 125.336 17.1562 123.961 15.9844C122.586 14.8125 120.891 14.2188 118.875 14.2031C116.938 14.2031 115.242 14.7891 113.789 15.9609C112.352 17.1328 111.453 18.6641 111.094 20.5547ZM146.906 36.6328C144.359 36.6328 142.07 36.0703 140.039 34.9453C138.008 33.8203 136.414 32.2266 135.258 30.1641C134.117 28.1016 133.547 25.7578 133.547 23.1328C133.547 21.2422 133.898 19.4609 134.602 17.7891C135.305 16.1172 136.25 14.6875 137.438 13.5C138.625 12.3125 140.039 11.375 141.68 10.6875C143.32 10 145.062 9.65625 146.906 9.65625C151.078 9.67188 154.406 11.0625 156.891 13.8281C159.391 16.5938 160.43 20.1562 160.008 24.5156H139.078C139.188 26.7188 139.984 28.5312 141.469 29.9531C142.953 31.3594 144.781 32.0547 146.953 32.0391C148.719 32.0234 150.25 31.6016 151.547 30.7734C152.844 29.9297 153.727 28.8281 154.195 27.4688H159.797C159.156 30.2188 157.664 32.4375 155.32 34.125C152.992 35.7969 150.188 36.6328 146.906 36.6328ZM139.219 20.5547H154.43C154.242 18.6797 153.461 17.1562 152.086 15.9844C150.711 14.8125 149.016 14.2188 147 14.2031C145.062 14.2031 143.367 14.7891 141.914 15.9609C140.477 17.1328 139.578 18.6641 139.219 20.5547ZM162.984 36V0.984375H168.305V21.3516L178.922 10.2188H185.578L174.445 21.7266L186.305 36H179.695L168.305 22.1953V36H162.984ZM198.703 36.6328C196.156 36.6328 193.867 36.0703 191.836 34.9453C189.805 33.8203 188.211 32.2266 187.055 30.1641C185.914 28.1016 185.344 25.7578 185.344 23.1328C185.344 21.2422 185.695 19.4609 186.398 17.7891C187.102 16.1172 188.047 14.6875 189.234 13.5C190.422 12.3125 191.836 11.375 193.477 10.6875C195.117 10 196.859 9.65625 198.703 9.65625C202.875 9.67188 206.203 11.0625 208.688 13.8281C211.188 16.5938 212.227 20.1562 211.805 24.5156H190.875C190.984 26.7188 191.781 28.5312 193.266 29.9531C194.75 31.3594 196.578 32.0547 198.75 32.0391C200.516 32.0234 202.047 31.6016 203.344 30.7734C204.641 29.9297 205.523 28.8281 205.992 27.4688H211.594C210.953 30.2188 209.461 32.4375 207.117 34.125C204.789 35.7969 201.984 36.6328 198.703 36.6328ZM191.016 20.5547H206.227C206.039 18.6797 205.258 17.1562 203.883 15.9844C202.508 14.8125 200.812 14.2188 198.797 14.2031C196.859 14.2031 195.164 14.7891 193.711 15.9609C192.273 17.1328 191.375 18.6641 191.016 20.5547ZM219.984 21.1641V36H214.688V10.2188H219.867V13.5938C220.648 12.375 221.719 11.4141 223.078 10.7109C224.438 9.99219 225.906 9.64062 227.484 9.65625C230.266 9.67188 232.5 10.5703 234.188 12.3516C235.891 14.1172 236.742 16.4531 236.742 19.3594V36H231.422V20.3906C231.422 18.5469 230.93 17.0859 229.945 16.0078C228.977 14.9141 227.664 14.375 226.008 14.3906C224.289 14.3906 222.852 15.0391 221.695 16.3359C220.555 17.6172 219.984 19.2266 219.984 21.1641ZM252.047 36.5156C248.375 36.5156 245.367 35.2578 243.023 32.7422C240.68 30.2266 239.516 27 239.531 23.0625C239.547 19.125 240.727 15.9062 243.07 13.4062C245.43 10.8906 248.453 9.64062 252.141 9.65625C253.891 9.64062 255.547 10.0078 257.109 10.7578C258.672 11.4922 259.922 12.4922 260.859 13.7578V0.960938H266.203V36H260.906V32.25C259.875 33.5625 258.562 34.6016 256.969 35.3672C255.375 36.1328 253.734 36.5156 252.047 36.5156ZM245.086 23.0625C245.086 25.625 245.789 27.7031 247.195 29.2969C248.617 30.8906 250.477 31.6875 252.773 31.6875C255.07 31.6875 257.016 30.875 258.609 29.25C260.219 27.625 261.023 25.5625 261.023 23.0625C261.039 20.5469 260.242 18.4766 258.633 16.8516C257.039 15.2109 255.086 14.3984 252.773 14.4141C250.477 14.3984 248.617 15.1953 247.195 16.8047C245.789 18.3984 245.086 20.4844 245.086 23.0625ZM282.727 36.5625C278.773 36.5469 275.531 35.2812 273 32.7656C270.469 30.25 269.203 27.0391 269.203 23.1328C269.203 19.1953 270.438 15.9688 272.906 13.4531C275.375 10.9375 278.539 9.67188 282.398 9.65625C285.805 9.65625 288.695 10.6172 291.07 12.5391C293.461 14.4609 294.891 16.9531 295.359 20.0156H289.641C289.172 18.3906 288.273 17.0703 286.945 16.0547C285.617 15.0391 284.109 14.5312 282.422 14.5312C280.109 14.5469 278.25 15.3438 276.844 16.9219C275.438 18.5 274.734 20.5703 274.734 23.1328C274.734 25.6953 275.461 27.7656 276.914 29.3438C278.383 30.9062 280.305 31.6875 282.68 31.6875C284.258 31.6875 285.688 31.2266 286.969 30.3047C288.266 29.3828 289.125 28.1875 289.547 26.7188H295.242C294.648 29.6875 293.203 32.0781 290.906 33.8906C288.625 35.6875 285.898 36.5781 282.727 36.5625ZM310.242 36.5625C306.336 36.5781 303.125 35.3281 300.609 32.8125C298.109 30.2969 296.859 27.0703 296.859 23.1328C296.859 20.5234 297.422 18.1953 298.547 16.1484C299.688 14.0859 301.273 12.4922 303.305 11.3672C305.352 10.2266 307.664 9.65625 310.242 9.65625C312.836 9.65625 315.156 10.2266 317.203 11.3672C319.25 12.4922 320.844 14.0859 321.984 16.1484C323.125 18.1953 323.695 20.5234 323.695 23.1328C323.695 25.7266 323.125 28.0469 321.984 30.0938C320.844 32.1406 319.25 33.7344 317.203 34.875C315.156 36 312.836 36.5625 310.242 36.5625ZM302.391 23.1328C302.391 25.6797 303.109 27.7422 304.547 29.3203C306 30.8984 307.898 31.6875 310.242 31.6875C312.617 31.6875 314.531 30.8984 315.984 29.3203C317.438 27.7422 318.156 25.6797 318.141 23.1328C318.156 20.5547 317.438 18.4766 315.984 16.8984C314.531 15.3047 312.617 14.5156 310.242 14.5312C307.883 14.5156 305.977 15.3047 304.523 16.8984C303.086 18.4766 302.375 20.5547 302.391 23.1328ZM337.875 36.5156C334.203 36.5156 331.195 35.2578 328.852 32.7422C326.508 30.2266 325.344 27 325.359 23.0625C325.375 19.125 326.555 15.9062 328.898 13.4062C331.258 10.8906 334.281 9.64062 337.969 9.65625C339.719 9.64062 341.375 10.0078 342.938 10.7578C344.5 11.4922 345.75 12.4922 346.688 13.7578V0.960938H352.031V36H346.734V32.25C345.703 33.5625 344.391 34.6016 342.797 35.3672C341.203 36.1328 339.562 36.5156 337.875 36.5156ZM330.914 23.0625C330.914 25.625 331.617 27.7031 333.023 29.2969C334.445 30.8906 336.305 31.6875 338.602 31.6875C340.898 31.6875 342.844 30.875 344.438 29.25C346.047 27.625 346.852 25.5625 346.852 23.0625C346.867 20.5469 346.07 18.4766 344.461 16.8516C342.867 15.2109 340.914 14.3984 338.602 14.4141C336.305 14.3984 334.445 15.1953 333.023 16.8047C331.617 18.3984 330.914 20.4844 330.914 23.0625ZM368.391 36.6328C365.844 36.6328 363.555 36.0703 361.523 34.9453C359.492 33.8203 357.898 32.2266 356.742 30.1641C355.602 28.1016 355.031 25.7578 355.031 23.1328C355.031 21.2422 355.383 19.4609 356.086 17.7891C356.789 16.1172 357.734 14.6875 358.922 13.5C360.109 12.3125 361.523 11.375 363.164 10.6875C364.805 10 366.547 9.65625 368.391 9.65625C372.562 9.67188 375.891 11.0625 378.375 13.8281C380.875 16.5938 381.914 20.1562 381.492 24.5156H360.562C360.672 26.7188 361.469 28.5312 362.953 29.9531C364.438 31.3594 366.266 32.0547 368.438 32.0391C370.203 32.0234 371.734 31.6016 373.031 30.7734C374.328 29.9297 375.211 28.8281 375.68 27.4688H381.281C380.641 30.2188 379.148 32.4375 376.805 34.125C374.477 35.7969 371.672 36.6328 368.391 36.6328ZM360.703 20.5547H375.914C375.727 18.6797 374.945 17.1562 373.57 15.9844C372.195 14.8125 370.5 14.2188 368.484 14.2031C366.547 14.2031 364.852 14.7891 363.398 15.9609C361.961 17.1328 361.062 18.6641 360.703 20.5547ZM384.375 36V10.2188H389.367V13.5234C390.086 12.3047 391.047 11.3594 392.25 10.6875C393.453 10.0156 394.797 9.6875 396.281 9.70312V14.6484C394.172 14.6016 392.516 15.2031 391.312 16.4531C390.125 17.6875 389.531 19.4297 389.531 21.6797V36H384.375ZM411.047 17.9531C410.875 16.7812 410.398 15.8281 409.617 15.0938C408.836 14.3594 407.906 14 406.828 14.0156C405.891 14.0312 405.109 14.3438 404.484 14.9531C403.875 15.5625 403.57 16.2969 403.57 17.1562C403.57 18.5781 404.531 19.5781 406.453 20.1562L409.992 21.1641C414.367 22.3984 416.539 24.9297 416.508 28.7578C416.492 30.9766 415.641 32.8125 413.953 34.2656C412.266 35.7188 410.141 36.4375 407.578 36.4219C404.703 36.4062 402.336 35.6484 400.477 34.1484C398.617 32.6328 397.555 30.625 397.289 28.125H402.609C402.828 29.3281 403.383 30.3047 404.273 31.0547C405.164 31.7891 406.258 32.1484 407.555 32.1328C408.648 32.1172 409.531 31.8516 410.203 31.3359C410.875 30.8047 411.203 30.1172 411.188 29.2734C411.156 27.6797 410.242 26.6094 408.445 26.0625L405.047 25.0781C402.734 24.4062 401.023 23.4688 399.914 22.2656C398.82 21.0625 398.266 19.5391 398.25 17.6953C398.234 15.4453 399.062 13.5625 400.734 12.0469C402.406 10.5156 404.531 9.74219 407.109 9.72656C409.703 9.72656 411.828 10.4766 413.484 11.9766C415.156 13.4609 416.109 15.4531 416.344 17.9531H411.047ZM418.688 35.6484V29.7422H424.594V35.6484H418.688Z" fill="white"/>
</svg>
